<mxfile host="app.diagrams.net" modified="2020-07-02T01:17:25.895Z" agent="5.0 (Macintosh; Intel Mac OS X 10_15_5) AppleWebKit/537.36 (KHTML, like Gecko) Chrome/83.0.4103.116 Safari/537.36" etag="ARq9wVYQVTXz5finlhGX" version="13.3.1" type="github">
  <diagram id="odZrSyXb3V049ySUycpB" name="第 1 页">
    <mxGraphModel dx="946" dy="542" grid="1" gridSize="10" guides="1" tooltips="1" connect="1" arrows="1" fold="1" page="1" pageScale="1" pageWidth="3300" pageHeight="2339" math="0" shadow="0">
      <root>
        <mxCell id="0" />
        <mxCell id="1" parent="0" />
        <mxCell id="SO6Xh5cvIEWpkN7jRX6y-54" value="" style="rounded=1;whiteSpace=wrap;html=1;opacity=50;fillColor=#ffe6cc;strokeColor=#d79b00;" parent="1" vertex="1">
          <mxGeometry x="220" y="570" width="1080" height="170" as="geometry" />
        </mxCell>
        <mxCell id="SO6Xh5cvIEWpkN7jRX6y-53" value="" style="rounded=1;whiteSpace=wrap;html=1;opacity=50;fillColor=#dae8fc;strokeColor=#6c8ebf;" parent="1" vertex="1">
          <mxGeometry x="930" y="640" width="140" height="370" as="geometry" />
        </mxCell>
        <mxCell id="SO6Xh5cvIEWpkN7jRX6y-2" style="edgeStyle=orthogonalEdgeStyle;rounded=0;orthogonalLoop=1;jettySize=auto;html=1;entryX=0.5;entryY=0;entryDx=0;entryDy=0;" parent="1" source="SO6Xh5cvIEWpkN7jRX6y-3" target="SO6Xh5cvIEWpkN7jRX6y-5" edge="1">
          <mxGeometry relative="1" as="geometry" />
        </mxCell>
        <mxCell id="SO6Xh5cvIEWpkN7jRX6y-3" value="启动一个协程，在协程中执行&lt;br&gt;pool.spawn_n(new_task.run, task_executor)" style="rounded=1;whiteSpace=wrap;html=1;" parent="1" vertex="1">
          <mxGeometry x="609.94" y="170" width="170" height="60" as="geometry" />
        </mxCell>
        <mxCell id="SO6Xh5cvIEWpkN7jRX6y-4" style="edgeStyle=orthogonalEdgeStyle;rounded=0;orthogonalLoop=1;jettySize=auto;html=1;entryX=0.5;entryY=0;entryDx=0;entryDy=0;" parent="1" source="SO6Xh5cvIEWpkN7jRX6y-5" target="SO6Xh5cvIEWpkN7jRX6y-13" edge="1">
          <mxGeometry relative="1" as="geometry">
            <Array as="points">
              <mxPoint x="789.94" y="284" />
              <mxPoint x="789.94" y="450" />
              <mxPoint x="689.94" y="450" />
            </Array>
          </mxGeometry>
        </mxCell>
        <mxCell id="SO6Xh5cvIEWpkN7jRX6y-39" style="edgeStyle=orthogonalEdgeStyle;rounded=0;orthogonalLoop=1;jettySize=auto;html=1;entryX=0.5;entryY=0;entryDx=0;entryDy=0;" parent="1" source="SO6Xh5cvIEWpkN7jRX6y-5" target="SO6Xh5cvIEWpkN7jRX6y-38" edge="1">
          <mxGeometry relative="1" as="geometry" />
        </mxCell>
        <mxCell id="SO6Xh5cvIEWpkN7jRX6y-5" value="task_executor&lt;br&gt;taskflow_executor.TaskExecutor" style="rounded=1;whiteSpace=wrap;html=1;" parent="1" vertex="1">
          <mxGeometry x="614.94" y="254.5" width="160" height="60" as="geometry" />
        </mxCell>
        <mxCell id="SO6Xh5cvIEWpkN7jRX6y-45" style="edgeStyle=orthogonalEdgeStyle;rounded=0;orthogonalLoop=1;jettySize=auto;html=1;exitX=0.5;exitY=1;exitDx=0;exitDy=0;" parent="1" source="SO6Xh5cvIEWpkN7jRX6y-13" target="SO6Xh5cvIEWpkN7jRX6y-28" edge="1">
          <mxGeometry relative="1" as="geometry">
            <Array as="points">
              <mxPoint x="690" y="600" />
              <mxPoint x="330" y="600" />
            </Array>
          </mxGeometry>
        </mxCell>
        <mxCell id="SO6Xh5cvIEWpkN7jRX6y-48" style="edgeStyle=orthogonalEdgeStyle;rounded=0;orthogonalLoop=1;jettySize=auto;html=1;entryX=0.5;entryY=0;entryDx=0;entryDy=0;" parent="1" source="SO6Xh5cvIEWpkN7jRX6y-13" target="SO6Xh5cvIEWpkN7jRX6y-26" edge="1">
          <mxGeometry relative="1" as="geometry">
            <Array as="points">
              <mxPoint x="690" y="600" />
              <mxPoint x="630" y="600" />
            </Array>
          </mxGeometry>
        </mxCell>
        <mxCell id="SO6Xh5cvIEWpkN7jRX6y-49" style="edgeStyle=orthogonalEdgeStyle;rounded=0;orthogonalLoop=1;jettySize=auto;html=1;" parent="1" source="SO6Xh5cvIEWpkN7jRX6y-13" target="SO6Xh5cvIEWpkN7jRX6y-27" edge="1">
          <mxGeometry relative="1" as="geometry">
            <Array as="points">
              <mxPoint x="690" y="600" />
              <mxPoint x="480" y="600" />
            </Array>
          </mxGeometry>
        </mxCell>
        <mxCell id="SO6Xh5cvIEWpkN7jRX6y-50" style="edgeStyle=orthogonalEdgeStyle;rounded=0;orthogonalLoop=1;jettySize=auto;html=1;" parent="1" source="SO6Xh5cvIEWpkN7jRX6y-13" target="SO6Xh5cvIEWpkN7jRX6y-25" edge="1">
          <mxGeometry relative="1" as="geometry">
            <Array as="points">
              <mxPoint x="690" y="600" />
              <mxPoint x="780" y="600" />
            </Array>
          </mxGeometry>
        </mxCell>
        <mxCell id="SO6Xh5cvIEWpkN7jRX6y-51" style="edgeStyle=orthogonalEdgeStyle;rounded=0;orthogonalLoop=1;jettySize=auto;html=1;entryX=0.5;entryY=0;entryDx=0;entryDy=0;" parent="1" source="SO6Xh5cvIEWpkN7jRX6y-13" target="SO6Xh5cvIEWpkN7jRX6y-19" edge="1">
          <mxGeometry relative="1" as="geometry">
            <Array as="points">
              <mxPoint x="690" y="600" />
              <mxPoint x="1000" y="600" />
            </Array>
          </mxGeometry>
        </mxCell>
        <mxCell id="SO6Xh5cvIEWpkN7jRX6y-52" style="edgeStyle=orthogonalEdgeStyle;rounded=0;orthogonalLoop=1;jettySize=auto;html=1;" parent="1" source="SO6Xh5cvIEWpkN7jRX6y-13" target="SO6Xh5cvIEWpkN7jRX6y-14" edge="1">
          <mxGeometry relative="1" as="geometry">
            <Array as="points">
              <mxPoint x="690" y="600" />
              <mxPoint x="1160" y="600" />
            </Array>
          </mxGeometry>
        </mxCell>
        <mxCell id="SO6Xh5cvIEWpkN7jRX6y-13" value="taskflow的形式线性执行下列任务：" style="rounded=1;whiteSpace=wrap;html=1;" parent="1" vertex="1">
          <mxGeometry x="629.94" y="510" width="120" height="60" as="geometry" />
        </mxCell>
        <mxCell id="SO6Xh5cvIEWpkN7jRX6y-14" value="_CreateImage" style="rounded=1;whiteSpace=wrap;html=1;" parent="1" vertex="1">
          <mxGeometry x="1100" y="660" width="120" height="60" as="geometry" />
        </mxCell>
        <mxCell id="SO6Xh5cvIEWpkN7jRX6y-19" value="Subflow-&amp;gt;limbo" style="rounded=1;whiteSpace=wrap;html=1;" parent="1" vertex="1">
          <mxGeometry x="940" y="660" width="120" height="60" as="geometry" />
        </mxCell>
        <mxCell id="SO6Xh5cvIEWpkN7jRX6y-20" value="_OVF_Process" style="rounded=1;whiteSpace=wrap;html=1;" parent="1" vertex="1">
          <mxGeometry x="940" y="800" width="120" height="30" as="geometry" />
        </mxCell>
        <mxCell id="SO6Xh5cvIEWpkN7jRX6y-44" style="edgeStyle=orthogonalEdgeStyle;rounded=0;orthogonalLoop=1;jettySize=auto;html=1;entryX=0;entryY=0.5;entryDx=0;entryDy=0;" parent="1" source="SO6Xh5cvIEWpkN7jRX6y-22" target="SO6Xh5cvIEWpkN7jRX6y-31" edge="1">
          <mxGeometry relative="1" as="geometry" />
        </mxCell>
        <mxCell id="SO6Xh5cvIEWpkN7jRX6y-22" value="_Convert" style="rounded=1;whiteSpace=wrap;html=1;" parent="1" vertex="1">
          <mxGeometry x="940" y="850" width="120" height="30" as="geometry" />
        </mxCell>
        <mxCell id="SO6Xh5cvIEWpkN7jRX6y-23" value="_Introspect" style="rounded=1;whiteSpace=wrap;html=1;" parent="1" vertex="1">
          <mxGeometry x="940" y="900" width="120" height="30" as="geometry" />
        </mxCell>
        <mxCell id="SO6Xh5cvIEWpkN7jRX6y-42" style="edgeStyle=orthogonalEdgeStyle;rounded=0;orthogonalLoop=1;jettySize=auto;html=1;entryX=0.5;entryY=0;entryDx=0;entryDy=0;" parent="1" source="SO6Xh5cvIEWpkN7jRX6y-25" target="SO6Xh5cvIEWpkN7jRX6y-33" edge="1">
          <mxGeometry relative="1" as="geometry" />
        </mxCell>
        <mxCell id="SO6Xh5cvIEWpkN7jRX6y-25" value="_ImportToStore" style="rounded=1;whiteSpace=wrap;html=1;" parent="1" vertex="1">
          <mxGeometry x="720" y="660" width="120" height="60" as="geometry" />
        </mxCell>
        <mxCell id="SO6Xh5cvIEWpkN7jRX6y-26" value="_DeleteFromFS" style="rounded=1;whiteSpace=wrap;html=1;" parent="1" vertex="1">
          <mxGeometry x="570" y="660" width="120" height="60" as="geometry" />
        </mxCell>
        <mxCell id="SO6Xh5cvIEWpkN7jRX6y-27" value="_SaveImage" style="rounded=1;whiteSpace=wrap;html=1;" parent="1" vertex="1">
          <mxGeometry x="420" y="660" width="120" height="60" as="geometry" />
        </mxCell>
        <mxCell id="SO6Xh5cvIEWpkN7jRX6y-28" value="_CompleteTask" style="rounded=1;whiteSpace=wrap;html=1;" parent="1" vertex="1">
          <mxGeometry x="270.00000000000006" y="660" width="120" height="60" as="geometry" />
        </mxCell>
        <mxCell id="SO6Xh5cvIEWpkN7jRX6y-43" style="edgeStyle=orthogonalEdgeStyle;rounded=0;orthogonalLoop=1;jettySize=auto;html=1;entryX=0;entryY=0.5;entryDx=0;entryDy=0;" parent="1" source="SO6Xh5cvIEWpkN7jRX6y-30" target="SO6Xh5cvIEWpkN7jRX6y-32" edge="1">
          <mxGeometry relative="1" as="geometry" />
        </mxCell>
        <mxCell id="SO6Xh5cvIEWpkN7jRX6y-30" value="_ImportToFS" style="rounded=1;whiteSpace=wrap;html=1;" parent="1" vertex="1">
          <mxGeometry x="940" y="750" width="120" height="30" as="geometry" />
        </mxCell>
        <mxCell id="SO6Xh5cvIEWpkN7jRX6y-31" value="使用qemu-img命令实现格式转换（由qcow2到raw）" style="rounded=0;whiteSpace=wrap;html=1;" parent="1" vertex="1">
          <mxGeometry x="1100" y="835" width="120" height="60" as="geometry" />
        </mxCell>
        <mxCell id="SO6Xh5cvIEWpkN7jRX6y-32" value="实现从远端拉取到本地，需要在conf文件中指定本地路径" style="rounded=0;whiteSpace=wrap;html=1;" parent="1" vertex="1">
          <mxGeometry x="1100" y="735" width="120" height="60" as="geometry" />
        </mxCell>
        <mxCell id="oVZXc6meEgmm2I-S_Hql-20" style="edgeStyle=orthogonalEdgeStyle;rounded=0;orthogonalLoop=1;jettySize=auto;html=1;entryX=0.5;entryY=0;entryDx=0;entryDy=0;" edge="1" parent="1" source="SO6Xh5cvIEWpkN7jRX6y-33" target="oVZXc6meEgmm2I-S_Hql-2">
          <mxGeometry relative="1" as="geometry" />
        </mxCell>
        <mxCell id="SO6Xh5cvIEWpkN7jRX6y-33" value="实现将镜像上传到后端存储&lt;br&gt;set_image_data-&amp;gt;set_data&lt;br&gt;这里分两种情况：&lt;br&gt;1、image在本地&lt;br&gt;2、image文件在远端，只能拿到一个socket" style="rounded=0;whiteSpace=wrap;html=1;" parent="1" vertex="1">
          <mxGeometry x="675" y="780" width="210" height="100" as="geometry" />
        </mxCell>
        <mxCell id="SO6Xh5cvIEWpkN7jRX6y-34" style="edgeStyle=orthogonalEdgeStyle;rounded=0;orthogonalLoop=1;jettySize=auto;html=1;entryX=0.5;entryY=0;entryDx=0;entryDy=0;" parent="1" source="SO6Xh5cvIEWpkN7jRX6y-35" target="SO6Xh5cvIEWpkN7jRX6y-3" edge="1">
          <mxGeometry relative="1" as="geometry" />
        </mxCell>
        <mxCell id="SO6Xh5cvIEWpkN7jRX6y-35" value="restful task_create" style="rounded=1;whiteSpace=wrap;html=1;" parent="1" vertex="1">
          <mxGeometry x="634.94" y="70" width="120" height="60" as="geometry" />
        </mxCell>
        <mxCell id="SO6Xh5cvIEWpkN7jRX6y-38" value="不需要等待任务执行完成，先返回任务状态&lt;br&gt;return task" style="rounded=1;whiteSpace=wrap;html=1;" parent="1" vertex="1">
          <mxGeometry x="634.94" y="350" width="120" height="60" as="geometry" />
        </mxCell>
        <mxCell id="SO6Xh5cvIEWpkN7jRX6y-55" value="由flow控制顺序执行" style="text;html=1;strokeColor=none;fillColor=none;align=center;verticalAlign=middle;whiteSpace=wrap;rounded=0;opacity=50;" parent="1" vertex="1">
          <mxGeometry x="1170" y="580" width="120" height="20" as="geometry" />
        </mxCell>
        <mxCell id="SO6Xh5cvIEWpkN7jRX6y-56" value="由subflow控制顺序执行" style="text;html=1;strokeColor=none;fillColor=none;align=center;verticalAlign=middle;whiteSpace=wrap;rounded=0;opacity=50;" parent="1" vertex="1">
          <mxGeometry x="930" y="950" width="140" height="20" as="geometry" />
        </mxCell>
        <mxCell id="oVZXc6meEgmm2I-S_Hql-1" style="edgeStyle=orthogonalEdgeStyle;rounded=0;orthogonalLoop=1;jettySize=auto;html=1;entryX=0.5;entryY=0;entryDx=0;entryDy=0;" edge="1" parent="1" source="oVZXc6meEgmm2I-S_Hql-2" target="oVZXc6meEgmm2I-S_Hql-4">
          <mxGeometry relative="1" as="geometry" />
        </mxCell>
        <mxCell id="oVZXc6meEgmm2I-S_Hql-2" value="&lt;span&gt;_ImportToStore&lt;/span&gt;" style="rounded=1;whiteSpace=wrap;html=1;" vertex="1" parent="1">
          <mxGeometry x="720" y="1050" width="120" height="60" as="geometry" />
        </mxCell>
        <mxCell id="oVZXc6meEgmm2I-S_Hql-3" style="edgeStyle=orthogonalEdgeStyle;rounded=0;orthogonalLoop=1;jettySize=auto;html=1;entryX=0.5;entryY=0;entryDx=0;entryDy=0;" edge="1" parent="1" source="oVZXc6meEgmm2I-S_Hql-4" target="oVZXc6meEgmm2I-S_Hql-6">
          <mxGeometry relative="1" as="geometry" />
        </mxCell>
        <mxCell id="oVZXc6meEgmm2I-S_Hql-4" value="set_image_data(image, file_path or self.uri, self.task_id)" style="rounded=1;whiteSpace=wrap;html=1;" vertex="1" parent="1">
          <mxGeometry x="710" y="1160" width="140" height="70" as="geometry" />
        </mxCell>
        <mxCell id="oVZXc6meEgmm2I-S_Hql-5" style="edgeStyle=orthogonalEdgeStyle;rounded=0;orthogonalLoop=1;jettySize=auto;html=1;entryX=0.5;entryY=0;entryDx=0;entryDy=0;" edge="1" parent="1" source="oVZXc6meEgmm2I-S_Hql-6" target="oVZXc6meEgmm2I-S_Hql-8">
          <mxGeometry relative="1" as="geometry" />
        </mxCell>
        <mxCell id="oVZXc6meEgmm2I-S_Hql-6" value="#get a fd or uri&lt;br&gt;script_utils.get_image_data_iter(uri)&lt;br&gt;image.set_data" style="rounded=1;whiteSpace=wrap;html=1;" vertex="1" parent="1">
          <mxGeometry x="680" y="1280" width="200" height="60" as="geometry" />
        </mxCell>
        <mxCell id="oVZXc6meEgmm2I-S_Hql-7" style="edgeStyle=orthogonalEdgeStyle;rounded=0;orthogonalLoop=1;jettySize=auto;html=1;entryX=0.5;entryY=0;entryDx=0;entryDy=0;" edge="1" parent="1" source="oVZXc6meEgmm2I-S_Hql-8" target="oVZXc6meEgmm2I-S_Hql-10">
          <mxGeometry relative="1" as="geometry" />
        </mxCell>
        <mxCell id="oVZXc6meEgmm2I-S_Hql-8" value="glance/location.py&lt;br&gt;中set_data" style="rounded=1;whiteSpace=wrap;html=1;" vertex="1" parent="1">
          <mxGeometry x="720" y="1390" width="120" height="60" as="geometry" />
        </mxCell>
        <mxCell id="oVZXc6meEgmm2I-S_Hql-9" style="edgeStyle=orthogonalEdgeStyle;rounded=0;orthogonalLoop=1;jettySize=auto;html=1;entryX=0;entryY=0.5;entryDx=0;entryDy=0;" edge="1" parent="1" source="oVZXc6meEgmm2I-S_Hql-10" target="oVZXc6meEgmm2I-S_Hql-12">
          <mxGeometry relative="1" as="geometry" />
        </mxCell>
        <mxCell id="oVZXc6meEgmm2I-S_Hql-10" value="self.store_api.add_to_backend" style="rounded=1;whiteSpace=wrap;html=1;" vertex="1" parent="1">
          <mxGeometry x="700" y="1500" width="160" height="30" as="geometry" />
        </mxCell>
        <mxCell id="oVZXc6meEgmm2I-S_Hql-11" value="" style="edgeStyle=orthogonalEdgeStyle;rounded=0;orthogonalLoop=1;jettySize=auto;html=1;" edge="1" parent="1" source="oVZXc6meEgmm2I-S_Hql-12" target="oVZXc6meEgmm2I-S_Hql-16">
          <mxGeometry relative="1" as="geometry" />
        </mxCell>
        <mxCell id="oVZXc6meEgmm2I-S_Hql-12" value="glance_store/backend.py&lt;br&gt;add_to_backend" style="rounded=1;whiteSpace=wrap;html=1;" vertex="1" parent="1">
          <mxGeometry x="1055" y="1050" width="150" height="60" as="geometry" />
        </mxCell>
        <mxCell id="oVZXc6meEgmm2I-S_Hql-13" value="Glance_store" style="text;html=1;strokeColor=none;fillColor=none;align=center;verticalAlign=middle;whiteSpace=wrap;rounded=0;" vertex="1" parent="1">
          <mxGeometry x="1075" y="1020" width="80" height="20" as="geometry" />
        </mxCell>
        <mxCell id="oVZXc6meEgmm2I-S_Hql-14" value="Glance-api" style="text;html=1;strokeColor=none;fillColor=none;align=center;verticalAlign=middle;whiteSpace=wrap;rounded=0;" vertex="1" parent="1">
          <mxGeometry x="725" y="1020" width="100" height="20" as="geometry" />
        </mxCell>
        <mxCell id="oVZXc6meEgmm2I-S_Hql-15" style="edgeStyle=orthogonalEdgeStyle;rounded=0;orthogonalLoop=1;jettySize=auto;html=1;entryX=0.5;entryY=0;entryDx=0;entryDy=0;" edge="1" parent="1" source="oVZXc6meEgmm2I-S_Hql-16" target="oVZXc6meEgmm2I-S_Hql-18">
          <mxGeometry relative="1" as="geometry" />
        </mxCell>
        <mxCell id="oVZXc6meEgmm2I-S_Hql-16" value="store_add_to_backend" style="rounded=1;whiteSpace=wrap;html=1;" vertex="1" parent="1">
          <mxGeometry x="1070" y="1160" width="120" height="60" as="geometry" />
        </mxCell>
        <mxCell id="oVZXc6meEgmm2I-S_Hql-17" style="edgeStyle=orthogonalEdgeStyle;rounded=0;orthogonalLoop=1;jettySize=auto;html=1;entryX=0.5;entryY=0;entryDx=0;entryDy=0;" edge="1" parent="1" source="oVZXc6meEgmm2I-S_Hql-18" target="oVZXc6meEgmm2I-S_Hql-19">
          <mxGeometry relative="1" as="geometry" />
        </mxCell>
        <mxCell id="oVZXc6meEgmm2I-S_Hql-18" value="store.add" style="rounded=1;whiteSpace=wrap;html=1;" vertex="1" parent="1">
          <mxGeometry x="1070" y="1270" width="120" height="40" as="geometry" />
        </mxCell>
        <mxCell id="oVZXc6meEgmm2I-S_Hql-22" style="edgeStyle=orthogonalEdgeStyle;rounded=0;orthogonalLoop=1;jettySize=auto;html=1;entryX=0;entryY=0.5;entryDx=0;entryDy=0;" edge="1" parent="1" source="oVZXc6meEgmm2I-S_Hql-19" target="oVZXc6meEgmm2I-S_Hql-21">
          <mxGeometry relative="1" as="geometry" />
        </mxCell>
        <mxCell id="oVZXc6meEgmm2I-S_Hql-19" value="glance_store/_drivers/rbd.py&lt;br&gt;store.add" style="rounded=1;whiteSpace=wrap;html=1;" vertex="1" parent="1">
          <mxGeometry x="1055" y="1360" width="150" height="60" as="geometry" />
        </mxCell>
        <mxCell id="oVZXc6meEgmm2I-S_Hql-21" value="需要在rbd driver中修改上传镜像的方式来支持rbd格式的raw上传" style="text;html=1;strokeColor=none;fillColor=none;align=center;verticalAlign=middle;whiteSpace=wrap;rounded=0;" vertex="1" parent="1">
          <mxGeometry x="1230" y="1380" width="190" height="20" as="geometry" />
        </mxCell>
      </root>
    </mxGraphModel>
  </diagram>
</mxfile>
